<svg id="visual" viewBox="0 0 1440 900" width="1440" height="900" xmlns="http://www.w3.org/2000/svg" xmlns:xlink="http://www.w3.org/1999/xlink" version="1.1"><path d="M0 217L63 172L125 262L188 235L250 208L313 73L376 253L438 172L501 217L563 109L626 235L689 118L751 172L814 154L877 109L939 181L1002 253L1064 118L1127 37L1190 172L1252 163L1315 109L1377 136L1440 217L1440 0L1377 0L1315 0L1252 0L1190 0L1127 0L1064 0L1002 0L939 0L877 0L814 0L751 0L689 0L626 0L563 0L501 0L438 0L376 0L313 0L250 0L188 0L125 0L63 0L0 0Z" fill="#088b7c"></path><path d="M0 379L63 307L125 289L188 361L250 316L313 100L376 289L438 298L501 271L563 208L626 298L689 298L751 343L814 262L877 262L939 289L1002 370L1064 226L1127 172L1190 199L1252 190L1315 280L1377 181L1440 253L1440 215L1377 134L1315 107L1252 161L1190 170L1127 35L1064 116L1002 251L939 179L877 107L814 152L751 170L689 116L626 233L563 107L501 215L438 170L376 251L313 71L250 206L188 233L125 260L63 170L0 215Z" fill="#00cda2"></path><path d="M0 604L63 415L125 721L188 442L250 415L313 595L376 460L438 676L501 613L563 388L626 595L689 613L751 469L814 406L877 577L939 550L1002 613L1064 613L1127 334L1190 262L1252 415L1315 712L1377 271L1440 541L1440 251L1377 179L1315 278L1252 188L1190 197L1127 170L1064 224L1002 368L939 287L877 260L814 260L751 341L689 296L626 296L563 206L501 269L438 296L376 287L313 98L250 314L188 359L125 287L63 305L0 377Z" fill="#16f6b2"></path><path d="M0 838L63 784L125 847L188 721L250 784L313 847L376 784L438 784L501 766L563 721L626 793L689 766L751 811L814 766L877 703L939 865L1002 757L1064 721L1127 694L1190 676L1252 739L1315 865L1377 784L1440 721L1440 539L1377 269L1315 710L1252 413L1190 260L1127 332L1064 611L1002 611L939 548L877 575L814 404L751 467L689 611L626 593L563 386L501 611L438 674L376 458L313 593L250 413L188 440L125 719L63 413L0 602Z" fill="#00cda2"></path><path d="M0 901L63 901L125 901L188 901L250 901L313 901L376 901L438 901L501 901L563 901L626 901L689 901L751 901L814 901L877 901L939 901L1002 901L1064 901L1127 901L1190 901L1252 901L1315 901L1377 901L1440 901L1440 719L1377 782L1315 863L1252 737L1190 674L1127 692L1064 719L1002 755L939 863L877 701L814 764L751 809L689 764L626 791L563 719L501 764L438 782L376 782L313 845L250 782L188 719L125 845L63 782L0 836Z" fill="#088b7c"></path></svg>