<svg width="150" height="60" viewBox="0 0 69 26" fill="none" xmlns="http://www.w3.org/2000/svg">
<path d="M18.4467 23.0693H20.2197V22.0162C22.2812 21.9947 23.6876 20.8954 23.6876 18.9457C23.6876 17.0289 22.2356 15.9197 20.2197 15.8752V15.0461H18.4467V15.8752C16.408 15.9312 15 17.0074 15 18.9457C15 20.907 16.3738 21.9947 18.4467 22.0162V23.0693ZM21.8037 18.9457C21.8037 19.8653 21.3833 20.3466 20.2197 20.3697V17.5217C21.4044 17.5563 21.8037 18.2056 21.8037 18.9457ZM16.8839 18.9457C16.8839 18.1842 17.3157 17.5563 18.4467 17.5217V20.3697C17.3597 20.3466 16.8839 19.8538 16.8839 18.9457ZM29.5396 17.937H27.6443L26.9908 20.2345C26.9126 20.4916 26.8898 20.7158 26.8686 20.9399C26.8132 20.7059 26.7692 20.4817 26.6796 20.2461L25.8273 17.937H23.8212L26.0489 22.9803L25.9381 23.249C25.837 23.4962 25.6822 23.6643 25.4606 23.6643C25.2618 23.6643 25.0841 23.5522 24.9847 23.4847L24.4519 24.7504C24.7403 24.9977 25.107 25.2218 25.6382 25.2218C26.4025 25.2218 26.8686 24.7851 27.6003 22.9803L29.5396 17.937ZM29.7612 19.6181H31.2018V22.9803H32.864V19.6181H34.3046V17.937H29.7612V19.6181ZM38.7698 15C38.2483 15.5505 37.7285 15.3708 36.7197 15.8191C35.2563 16.4685 34.8033 18.0491 34.8033 19.8752C34.8033 21.8481 35.8218 23.1155 37.5622 23.1155C39.2016 23.1155 40.2218 21.9156 40.2218 20.5032C40.2218 18.9902 39.3239 18.0491 38.0169 18.0491C37.3846 18.0491 36.7751 18.3738 36.4867 18.7545H36.4655C36.5421 18.1282 36.8305 17.6898 37.3292 17.4211C38.1717 16.9728 38.9246 17.1525 39.6335 16.391L38.7698 15ZM36.5763 20.2345C36.7523 19.8423 37.119 19.6181 37.5834 19.6181C38.1717 19.6181 38.4487 20.0664 38.4487 20.5823C38.4487 21.0981 38.1489 21.5464 37.5182 21.5464C36.8859 21.5464 36.5861 20.8839 36.5763 20.2345ZM42.8259 22.9803L44.599 20.3466V22.9803H46.2612V17.937H44.599L42.8259 20.5707V17.937H41.1637V22.9803H42.8259ZM47.4802 22.9803H49.1424V20.6268L50.671 22.9803H52.8204L50.9594 20.3351L52.5776 17.937H50.4933L49.1424 20.2675V17.937H47.4802V22.9803Z" fill="black"/>
<path d="M17.6318 8C17.8437 8.45852 17.9941 8.9406 18.1996 9.4034C18.6911 9.44839 19.1868 9.45482 19.6826 9.51053C19.3182 9.85334 18.9136 10.1533 18.5449 10.4854C18.6551 10.9739 18.8013 11.4517 18.8987 11.9445C18.475 11.6938 18.0513 11.3982 17.6276 11.1475C17.2039 11.4067 16.8035 11.7067 16.3565 11.9424C16.4645 11.4539 16.6086 10.9739 16.7166 10.4854C16.3565 10.1447 15.9434 9.86406 15.5938 9.51267C16.0853 9.44839 16.5832 9.45268 17.0768 9.39911C17.2632 8.93417 17.4306 8.46066 17.6318 8Z" fill="#F37B13"/>
<path d="M50.0727 9.40554C50.2846 8.94274 50.435 8.46066 50.6405 8C50.8523 8.45852 51.0028 8.93631 51.1934 9.40126C51.6849 9.45268 52.1828 9.45054 52.6764 9.51481C52.3311 9.8662 51.9074 10.1426 51.5515 10.4854C51.6531 10.9761 51.8057 11.4517 51.9074 11.9424C51.5917 11.771 51.2951 11.5653 50.9964 11.3682C50.8881 11.2885 50.7708 11.2223 50.6468 11.171C50.5702 11.1898 50.4982 11.2241 50.435 11.2717C50.0876 11.5031 49.7444 11.7388 49.3757 11.9445C49.4689 11.4539 49.6172 10.9761 49.7295 10.4897C49.363 10.149 48.9563 9.84692 48.5898 9.51267C49.0813 9.45696 49.577 9.45054 50.0727 9.40554Z" fill="#F37B13"/>
<path d="M0.255759 9.28556C0.378469 9.2674 0.502595 9.26094 0.6265 9.26628C1.12223 9.26628 1.61797 9.26628 2.10946 9.26628C5.82252 9.26628 9.53629 9.26628 13.2508 9.26628C13.3672 9.25742 13.4831 9.28919 13.5791 9.35627C13.6162 9.39068 13.6447 9.43358 13.6621 9.48138C13.6795 9.52918 13.6853 9.58049 13.6791 9.63103C13.6728 9.68157 13.6548 9.72988 13.6263 9.77191C13.5979 9.81393 13.5599 9.84847 13.5156 9.87263C13.3899 9.91419 13.2579 9.93305 13.1258 9.92834C12.5411 9.92834 11.9585 9.92834 11.3759 9.92834C7.73484 9.92834 4.0924 9.92834 0.448544 9.92834C0.312959 9.92834 0.141359 9.92834 0.0587367 9.78693C0.0280204 9.74321 0.00861047 9.69241 0.00227564 9.63916C-0.0040592 9.58592 0.00288253 9.53191 0.0224682 9.48207C0.0420539 9.43223 0.0736608 9.38814 0.114409 9.35382C0.155156 9.31949 0.203749 9.29603 0.255759 9.28556Z" fill="#F37B13"/>
<path d="M54.8733 9.28555C55.0991 9.27162 55.3254 9.27162 55.5512 9.28555H67.3048C67.5389 9.2682 67.774 9.2682 68.0081 9.28555C68.0588 9.29584 68.1064 9.31835 68.1467 9.35116C68.187 9.38398 68.2189 9.42613 68.2397 9.47406C68.2605 9.522 68.2695 9.57429 68.2661 9.62651C68.2627 9.67873 68.2468 9.72935 68.22 9.77407C68.1479 9.89405 67.9954 9.90477 67.8725 9.91334C63.5875 9.91334 59.3031 9.91334 55.0195 9.91334C54.8733 9.91334 54.6869 9.89191 54.6233 9.7355C54.6026 9.68975 54.5929 9.6397 54.5949 9.58942C54.597 9.53915 54.6107 9.49008 54.6351 9.44621C54.6595 9.40234 54.6938 9.36492 54.7352 9.337C54.7765 9.30908 54.8239 9.29146 54.8733 9.28555Z" fill="#F37B13"/>
<path d="M5.67069 10.8218C5.92595 10.8043 6.18196 10.8007 6.4376 10.8111C8.71077 10.8111 10.9818 10.8111 13.255 10.8111C13.3612 10.805 13.467 10.8296 13.5601 10.8818C13.5978 10.9112 13.6286 10.9487 13.6502 10.9917C13.6719 11.0346 13.6839 11.0818 13.6853 11.13C13.6867 11.1782 13.6775 11.226 13.6584 11.2702C13.6394 11.3143 13.6108 11.3537 13.5749 11.3853C13.4784 11.4414 13.3683 11.4689 13.2571 11.4646C10.7784 11.4646 8.30048 11.4646 5.82323 11.4646C5.67705 11.4646 5.49062 11.4431 5.42494 11.2867C5.40172 11.2406 5.38987 11.1895 5.39038 11.1377C5.3909 11.086 5.40376 11.0351 5.42789 10.9894C5.45202 10.9438 5.4867 10.9047 5.52897 10.8755C5.57125 10.8463 5.61986 10.8279 5.67069 10.8218Z" fill="#F37B13"/>
<path d="M54.8733 10.8218C55.1285 10.8043 55.3845 10.8007 55.6402 10.8111C57.9112 10.8111 60.1844 10.8111 62.4555 10.8111C62.572 10.8013 62.6882 10.8332 62.7838 10.9011C62.8171 10.9318 62.8437 10.9692 62.8619 11.0109C62.8801 11.0526 62.8895 11.0976 62.8895 11.1432C62.8895 11.1887 62.8801 11.2338 62.8619 11.2755C62.8437 11.3172 62.8171 11.3546 62.7838 11.3853C62.6879 11.4427 62.5774 11.4703 62.4661 11.4646C59.9874 11.4646 57.5087 11.4646 55.0301 11.4646C54.8839 11.4646 54.6974 11.4431 54.6339 11.2846C54.6102 11.2391 54.5977 11.1885 54.5976 11.1372C54.5975 11.0858 54.6098 11.0351 54.6334 10.9896C54.6569 10.944 54.6911 10.905 54.7329 10.8758C54.7747 10.8465 54.8228 10.828 54.8733 10.8218Z" fill="#F37B13"/>
<path fill-rule="evenodd" clip-rule="evenodd" d="M33.4642 1.43968C33.1882 1.8828 33.1472 2.19843 33.3151 2.58784C33.7917 3.69328 35.2708 3.64642 35.5919 2.51578C35.7827 1.8441 35.4936 1.27461 34.8321 1.01938C34.5272 0.901632 34.3879 0.900771 34.0519 1.01442C33.716 1.128 33.6109 1.20412 33.4642 1.43968ZM31.6773 4.65766C30.8691 5.25216 30.2594 6.08421 30.2425 6.61538C30.2296 7.02471 30.2911 7.15237 30.5519 7.25773C30.8401 7.37416 31.0828 7.25495 31.2916 6.89429C31.692 6.20239 32.1734 5.73279 32.818 5.40531C33.1567 5.23325 33.4398 5.1065 33.4473 5.12368C33.4547 5.14093 33.5538 5.86251 33.6677 6.72726L33.8746 8.29959L33.5649 9.39092L33.2553 10.4822L32.5427 10.2546C31.9809 10.0752 31.7774 10.0497 31.581 10.1344C31.1171 10.3345 31.0165 10.9507 31.3856 11.3316C31.4789 11.4279 33.1573 11.9954 33.7785 12.1407C33.9789 12.1876 34.1336 12.1732 34.2176 12.0999C34.289 12.0376 34.5362 11.3753 34.767 10.6282L35.1868 9.26984L35.3508 9.5047C35.441 9.63388 35.7382 10.148 36.0114 10.6472L36.5082 11.5548L36.7789 13.0391C37.0482 14.5165 37.0506 14.5243 37.2903 14.7026C37.7293 15.0296 38.269 14.8264 38.3845 14.2905C38.4138 14.1545 38.3152 13.3691 38.1654 12.5453L37.8929 11.0474L37.2291 9.74998L36.5653 8.45247L36.3255 6.72945C36.1936 5.78174 36.1 4.96229 36.1175 4.90851C36.1596 4.77965 36.6134 4.94806 37.0053 5.23801C37.1739 5.36274 37.4267 5.64772 37.5671 5.87122C37.8895 6.38462 38.1458 6.51427 38.481 6.33364C38.6532 6.24084 38.749 6.11526 38.7929 5.92473C38.8514 5.67147 38.8329 5.6135 38.5574 5.18844C37.7396 3.92598 36.2114 3.31812 34.5007 3.57463C33.6398 3.7038 32.2485 4.23743 31.6773 4.65766ZM33.1787 13.2472C32.4427 14.0788 32.9348 15.3887 34.0112 15.4634C34.4614 15.4946 34.8544 15.3212 35.1108 14.978C35.4123 14.5746 35.4585 14.2452 35.2833 13.7471C35.1165 13.2726 34.8183 13.0123 34.2982 12.8874C33.964 12.8072 33.4109 12.9849 33.1787 13.2472ZM33.3703 13.3829C33.1288 13.5364 33.0626 13.6983 33.1543 13.9109C33.2231 14.0703 33.2549 14.0756 33.417 13.9542C33.6344 13.7913 33.7813 13.5128 33.7221 13.3756C33.6667 13.2471 33.581 13.2489 33.3703 13.3829ZM34.4413 13.2087C34.5195 13.452 34.6461 13.6187 34.8126 13.6971C35.0126 13.7915 35.105 13.7019 35.0174 13.4985C34.9388 13.3162 34.3867 13.0385 34.4413 13.2087ZM33.8086 13.6444C33.6934 13.9885 33.9024 14.2643 34.2516 14.2287C34.4769 14.2059 34.6586 13.9011 34.5697 13.695C34.428 13.3663 33.913 13.332 33.8086 13.6444ZM32.9479 14.2477C32.9635 14.5748 33.0732 14.8091 33.17 14.722C33.2886 14.6154 33.2037 14.1158 33.0568 14.0564C32.9681 14.0206 32.9395 14.0706 32.9479 14.2477ZM33.9437 14.5713C33.827 14.9202 34.0118 15.1049 34.4108 15.0386C34.6701 14.9955 34.7927 14.6072 34.6076 14.4158C34.5318 14.3374 34.421 14.2944 34.3613 14.3201C34.3016 14.3459 34.198 14.3689 34.131 14.3714C34.064 14.3738 33.9797 14.4638 33.9437 14.5713ZM33.2641 14.8761C33.2466 14.9988 33.4403 15.1594 33.7252 15.2582C33.9316 15.3298 33.941 15.3261 33.9343 15.1754C33.9203 14.8608 33.3054 14.5861 33.2641 14.8761ZM34.9185 14.614C34.7757 14.7599 34.6697 15.0663 34.7509 15.0991C34.8429 15.1363 35.099 14.8402 35.1764 14.6072C35.2559 14.3678 35.157 14.3703 34.9185 14.614Z" fill="#F37B13"/>
</svg>
